<svg xmlns="http://www.w3.org/2000/svg" xmlns:xlink="http://www.w3.org/1999/xlink" width="512" height="512"><defs><linearGradient id="b"><stop offset="0"/><stop offset="1" stop-color="#cb9570" stop-opacity="0"/></linearGradient><linearGradient id="a"><stop offset="0" stop-color="#2e2014"/><stop offset="1" stop-color="#7b532f"/></linearGradient><linearGradient><stop offset="0" stop-color="#4e351e" stop-opacity=".498"/><stop offset="1" stop-color="#4e351e" stop-opacity="0"/></linearGradient><linearGradient><stop offset="0" stop-color="#2a2017"/><stop offset=".063" stop-color="#3c2a1a" stop-opacity=".937"/><stop offset=".125" stop-color="#4e351e" stop-opacity=".875"/><stop offset=".25" stop-color="#4e351e" stop-opacity=".749"/><stop offset=".375" stop-color="#4e351e" stop-opacity=".624"/><stop offset=".5" stop-color="#4e351e" stop-opacity=".498"/><stop offset="1" stop-color="#4e351e" stop-opacity="0"/></linearGradient><linearGradient><stop offset="0" stop-opacity="0"/><stop offset=".016" stop-color="#19120c" stop-opacity=".482"/><stop offset=".031" stop-color="#332518" stop-opacity=".969"/><stop offset=".063" stop-color="#3c2a1a" stop-opacity=".937"/><stop offset=".125" stop-color="#4e351e" stop-opacity=".875"/><stop offset=".25" stop-color="#4e351e" stop-opacity=".749"/><stop offset=".375" stop-color="#4e351e" stop-opacity=".624"/><stop offset=".5" stop-color="#4e351e" stop-opacity=".498"/><stop offset="1" stop-color="#4e351e" stop-opacity="0"/></linearGradient><linearGradient xlink:href="#a" id="c" x1="84.498" y1="700.727" x2="104.849" y2="621.551" gradientUnits="userSpaceOnUse" gradientTransform="matrix(1.493 0 0 1.767 -78.181 -497.715)"/><radialGradient xlink:href="#b" cx="286.378" cy="422.601" fx="286.378" fy="422.601" r="244.962" gradientTransform="matrix(.824 -.254 .2 .282 -34.303 376.134)" gradientUnits="userSpaceOnUse"/></defs><path d="M574.777 408.964a4.041 15.152 0 0 1 0 .168l-4.04-.168z" fill="#cb9570"/><g stroke="#000" stroke-width="8"><path d="M509.942 199.633c-.299 13.072-2.227 29.415-10.556 39.275-87.854 104.004-75.208 98.948-99.529 228.509-93.027-25.359-170.193 0-260.886 0-71.834-65.27-35.736-212.952-92.017-268.475" fill="#cb9570"/><path d="M3.729 25.098c1.961 60.749 17.591 125.977 44.09 175.9 125.968 56.697 309.328-17.705 461.646 2.792-3.624-84.242-36.309-110.51-36.309-187.068-160.459-23.521-318.336 8.376-469.426 8.376z" fill="url(#c)"/></g></svg>