<?xml version="1.0" encoding="UTF-8" standalone="no"?>
<!-- Created with Inkscape (http://www.inkscape.org/) -->

<svg
   xmlns:dc="http://purl.org/dc/elements/1.1/"
   xmlns:cc="http://creativecommons.org/ns#"
   xmlns:rdf="http://www.w3.org/1999/02/22-rdf-syntax-ns#"
   xmlns:svg="http://www.w3.org/2000/svg"
   xmlns="http://www.w3.org/2000/svg"
   xmlns:sodipodi="http://sodipodi.sourceforge.net/DTD/sodipodi-0.dtd"
   xmlns:inkscape="http://www.inkscape.org/namespaces/inkscape"
   width="1024"
   height="1024"
   id="svg2"
   version="1.1"
   inkscape:version="0.48.2 r9819"
   sodipodi:docname="milk.svg"
   inkscape:export-filename="/Users/jslone/Documents/bagger/resources/images/groceries/milk.png"
   inkscape:export-xdpi="45"
   inkscape:export-ydpi="45">
  <defs
     id="defs4">
    <inkscape:perspective
       sodipodi:type="inkscape:persp3d"
       inkscape:vp_x="0 : 512 : 1"
       inkscape:vp_y="0 : 1000 : 0"
       inkscape:vp_z="1024 : 512 : 1"
       inkscape:persp3d-origin="512 : 341.33333 : 1"
       id="perspective3773" />
  </defs>
  <sodipodi:namedview
     id="base"
     pagecolor="#ffffff"
     bordercolor="#666666"
     borderopacity="1.0"
     inkscape:pageopacity="0.0"
     inkscape:pageshadow="2"
     inkscape:zoom="0.5"
     inkscape:cx="489.50813"
     inkscape:cy="482.96444"
     inkscape:document-units="px"
     inkscape:current-layer="layer1"
     showgrid="false"
     inkscape:snap-global="true"
     inkscape:snap-grids="true"
     inkscape:snap-to-guides="false"
     inkscape:window-width="1440"
     inkscape:window-height="852"
     inkscape:window-x="0"
     inkscape:window-y="0"
     inkscape:window-maximized="1">
    <inkscape:grid
       type="xygrid"
       id="grid2989"
       empspacing="5"
       visible="true"
       enabled="true"
       snapvisiblegridlinesonly="true" />
  </sodipodi:namedview>
  <metadata
     id="metadata7">
    <rdf:RDF>
      <cc:Work
         rdf:about="">
        <dc:format>image/svg+xml</dc:format>
        <dc:type
           rdf:resource="http://purl.org/dc/dcmitype/StillImage" />
        <dc:title />
      </cc:Work>
    </rdf:RDF>
  </metadata>
  <g
     inkscape:label="carton"
     inkscape:groupmode="layer"
     id="layer1"
     transform="translate(0,-28.362183)">
    <rect
       style="fill:#ffffff;stroke:#000000;stroke-width:12.03881168000000024;stroke-miterlimit:4;stroke-dasharray:none;fill-opacity:1"
       id="rect2991"
       width="410.73923"
       height="738.09528"
       x="302.54984"
       y="306.64789"
       ry="2.9022465" />
    <path
       style="fill:#ffffff;stroke:#000000;stroke-width:12.03881168000000024;stroke-linecap:butt;stroke-linejoin:bevel;stroke-miterlimit:4;stroke-opacity:1;stroke-dasharray:none;fill-opacity:1"
       d="M 302.54983,306.64789 520,92.362183 713.28905,306.64789 z"
       id="path2993"
       inkscape:connector-curvature="0"
       sodipodi:nodetypes="cccc" />
    <path
       style="fill:none;stroke:#000000;stroke-width:12.03881168;stroke-linecap:butt;stroke-linejoin:miter;stroke-miterlimit:4;stroke-opacity:1;stroke-dasharray:none"
       d="m 520,92.36217 0,-47.619042"
       id="path2995"
       inkscape:connector-curvature="0" />
  </g>
  <g
     inkscape:groupmode="layer"
     id="layer2"
     inkscape:label="cow">
    <g
       id="g3840"
       transform="matrix(0.32452996,0,0,0.47767704,348.16918,379.41606)">
      <path
         style="fill:#000000;fill-opacity:1;stroke:#000000;stroke-width:10;stroke-linecap:butt;stroke-linejoin:round;stroke-miterlimit:4;stroke-opacity:1;stroke-dasharray:none"
         d="m 660,184 180,20 C 1340,464 680,364 680,364 z"
         id="path3823"
         inkscape:connector-curvature="0"
         sodipodi:nodetypes="cccc" />
      <path
         sodipodi:nodetypes="cccc"
         inkscape:connector-curvature="0"
         id="path3821"
         d="M 320,184 140,204 C -360,464 300,364 300,364 z"
         style="fill:#000000;fill-opacity:1;stroke:#000000;stroke-width:10;stroke-linecap:butt;stroke-linejoin:round;stroke-miterlimit:4;stroke-opacity:1;stroke-dasharray:none" />
      <path
         sodipodi:nodetypes="ccccc"
         inkscape:connector-curvature="0"
         id="path3819"
         d="m 300,804 400,0 c 0,0 360,-460 -40,-620 l -340,0 C -40,364 300,804 300,804 z"
         style="fill:#ffffff;fill-opacity:1;stroke:#000000;stroke-width:10;stroke-linecap:round;stroke-linejoin:round;stroke-miterlimit:4;stroke-opacity:1;stroke-dasharray:none" />
      <path
         transform="matrix(1.25,0,0,1.25,25,274)"
         d="m 540,424 c 0,44.18278 -71.63444,80 -160,80 -88.36556,0 -160,-35.81722 -160,-80 0,-44.18278 71.63444,-80 160,-80 88.36556,0 160,35.81722 160,80 z"
         sodipodi:ry="80"
         sodipodi:rx="160"
         sodipodi:cy="424"
         sodipodi:cx="380"
         id="path3789"
         style="fill:#e29da7;fill-opacity:1;stroke:#000000;stroke-width:10;stroke-linecap:butt;stroke-linejoin:miter;stroke-miterlimit:4;stroke-opacity:1;stroke-dasharray:none"
         sodipodi:type="arc" />
      <path
         transform="translate(170,80)"
         d="m 280,714 c 0,16.56854 -13.43146,30 -30,30 -16.56854,0 -30,-13.43146 -30,-30 0,-16.56854 13.43146,-30 30,-30 16.56854,0 30,13.43146 30,30 z"
         sodipodi:ry="30"
         sodipodi:rx="30"
         sodipodi:cy="714"
         sodipodi:cx="250"
         id="path3793"
         style="fill:#732e38;fill-opacity:1;fill-rule:nonzero;stroke:none"
         sodipodi:type="arc" />
      <path
         sodipodi:type="arc"
         style="fill:#732e38;fill-opacity:1;fill-rule:nonzero;stroke:none"
         id="path3817"
         sodipodi:cx="250"
         sodipodi:cy="714"
         sodipodi:rx="30"
         sodipodi:ry="30"
         d="m 280,714 c 0,16.56854 -13.43146,30 -30,30 -16.56854,0 -30,-13.43146 -30,-30 0,-16.56854 13.43146,-30 30,-30 16.56854,0 30,13.43146 30,30 z"
         transform="translate(330,80)" />
      <path
         d="m 440,394 c 0,49.70563 -44.77153,90 -100,90 -55.22847,0 -100,-40.29437 -100,-90 0,-49.70563 44.77153,-90 100,-90 55.22847,0 100,40.29437 100,90 z"
         sodipodi:ry="90"
         sodipodi:rx="100"
         sodipodi:cy="394"
         sodipodi:cx="340"
         id="path3825"
         style="fill:none;stroke:#000000;stroke-width:10;stroke-miterlimit:4;stroke-opacity:1;stroke-dasharray:none"
         sodipodi:type="arc" />
      <path
         transform="matrix(2,0,0,1.5,140,-447)"
         d="m 120,554 c 0,5.52285 -4.47715,10 -10,10 -5.52285,0 -10,-4.47715 -10,-10 0,-5.52285 4.47715,-10 10,-10 5.52285,0 10,4.47715 10,10 z"
         sodipodi:ry="10"
         sodipodi:rx="10"
         sodipodi:cy="554"
         sodipodi:cx="110"
         id="path3827"
         style="fill:none;stroke:#000000;stroke-width:10;stroke-linecap:round;stroke-linejoin:round;stroke-miterlimit:4;stroke-opacity:1;stroke-dasharray:none"
         sodipodi:type="arc" />
      <path
         transform="translate(300,0)"
         sodipodi:type="arc"
         style="fill:none;stroke:#000000;stroke-width:10;stroke-miterlimit:4;stroke-opacity:1;stroke-dasharray:none"
         id="path3829"
         sodipodi:cx="340"
         sodipodi:cy="394"
         sodipodi:rx="100"
         sodipodi:ry="90"
         d="m 440,394 c 0,49.70563 -44.77153,90 -100,90 -55.22847,0 -100,-40.29437 -100,-90 0,-49.70563 44.77153,-90 100,-90 55.22847,0 100,40.29437 100,90 z" />
      <path
         sodipodi:type="arc"
         style="fill:none;stroke:#000000;stroke-width:10;stroke-linecap:round;stroke-linejoin:round;stroke-miterlimit:4;stroke-opacity:1;stroke-dasharray:none"
         id="path3831"
         sodipodi:cx="110"
         sodipodi:cy="554"
         sodipodi:rx="10"
         sodipodi:ry="10"
         d="m 120,554 c 0,5.52285 -4.47715,10 -10,10 -5.52285,0 -10,-4.47715 -10,-10 0,-5.52285 4.47715,-10 10,-10 5.52285,0 10,4.47715 10,10 z"
         transform="matrix(2,0,0,1.5,400,-412)" />
    </g>
    <path
       style="fill:none;stroke:#000000;stroke-width:9.59387398;stroke-linecap:round;stroke-linejoin:round;stroke-miterlimit:4;stroke-opacity:1;stroke-dasharray:none"
       d="m 341.30624,429.98639 c 24.29364,11.7348 5.90921,-113.31905 21.49986,-113.31905 1.63266,0 10.14127,51.25401 12.20321,55.31788 9.43854,18.6024 50.39296,55.31787 29.28771,55.31787 -2.12561,0 9.25637,-108.23064 14.64386,-108.23064 4.92787,0 10.96481,76.7925 43.17102,110.91394"
       id="path3854"
       inkscape:connector-curvature="0" />
    <path
       style="fill:none;stroke:#000000;stroke-width:9.59387398;stroke-linecap:round;stroke-linejoin:round;stroke-miterlimit:4;stroke-opacity:1;stroke-dasharray:none"
       d="m 510.43416,382.36734 c -102.03964,30.77687 75.2144,76.41508 0,0 z"
       id="path3856"
       inkscape:connector-curvature="0" />
    <path
       inkscape:connector-curvature="0"
       id="path3858"
       d="m 582.91755,382.36734 c -102.03964,30.77687 75.21441,76.41508 0,0 z"
       style="fill:none;stroke:#000000;stroke-width:9.59387398;stroke-linecap:round;stroke-linejoin:round;stroke-miterlimit:4;stroke-opacity:1;stroke-dasharray:none" />
    <path
       style="fill:none;stroke:#000000;stroke-width:9.59387398;stroke-linecap:round;stroke-linejoin:round;stroke-miterlimit:4;stroke-opacity:1;stroke-dasharray:none"
       d="m 359.4271,846.65307 c 1.68745,17.94792 13.87964,93.21456 6.12471,103.40398 -8.15688,10.71757 -19.61237,-8.54864 -18.20527,-14.11827"
       id="path3872"
       inkscape:connector-curvature="0" />
    <path
       style="fill:none;stroke:#000000;stroke-width:9.59387398;stroke-linecap:round;stroke-linejoin:round;stroke-miterlimit:4;stroke-opacity:1;stroke-dasharray:none"
       d="m 395.66879,912.12925 c 0.67803,-9.39454 2.39367,25.59795 15.58406,29.93076 21.92606,7.20232 6.29635,-34.51354 9.39647,-34.51354 0.1664,0 -0.55803,11.02016 2.13556,18.09856 3.33432,8.7621 16.55738,29.6607 27.24646,28.1509"
       id="path3874"
       inkscape:connector-curvature="0" />
    <path
       style="fill:none;stroke:#000000;stroke-width:9.59387398;stroke-linecap:round;stroke-linejoin:round;stroke-miterlimit:4;stroke-opacity:1;stroke-dasharray:none"
       d="m 492.31332,906.17688 c -3.40021,11.13508 4.60837,32.62631 6.04028,35.71428"
       id="path3876"
       inkscape:connector-curvature="0" />
    <path
       style="fill:none;stroke:#000000;stroke-width:9.59387398;stroke-linecap:round;stroke-linejoin:round;stroke-miterlimit:4;stroke-opacity:1;stroke-dasharray:none"
       d="m 486.27303,876.41497 c 1.41708,0.70044 4.89398,-8.5615 6.04029,-11.90476"
       id="path3878"
       inkscape:connector-curvature="0" />
    <path
       style="fill:none;stroke:#000000;stroke-width:9.59387398;stroke-linecap:round;stroke-linejoin:round;stroke-miterlimit:4;stroke-opacity:1;stroke-dasharray:none"
       d="m 552.71613,906.17688 c -28.91686,-10.48841 -30.54835,34.43603 -5.64152,42.61748 7.83405,2.57334 15.88495,-4.46183 23.76238,-6.9032"
       id="path3880"
       inkscape:connector-curvature="0" />
    <path
       style="fill:none;stroke:#000000;stroke-width:9.59387398;stroke-linecap:round;stroke-linejoin:round;stroke-miterlimit:4;stroke-opacity:1;stroke-dasharray:none"
       d="m 625.19953,924.03402 c 8.73677,4.31567 22.57343,-5.99106 24.80919,-14.80397 5.11067,-20.14518 -32.39915,-3.18565 -23.49119,23.14933 8.8847,26.26619 43.63287,15.77707 47.00426,3.5594"
       id="path3882"
       inkscape:connector-curvature="0" />
  </g>
</svg>
