<?xml version="1.0" encoding="UTF-8" standalone="no"?>
<!-- Created with Inkscape (http://www.inkscape.org/) -->

<svg
   xmlns:dc="http://purl.org/dc/elements/1.1/"
   xmlns:cc="http://creativecommons.org/ns#"
   xmlns:rdf="http://www.w3.org/1999/02/22-rdf-syntax-ns#"
   xmlns:svg="http://www.w3.org/2000/svg"
   xmlns="http://www.w3.org/2000/svg"
   xmlns:sodipodi="http://sodipodi.sourceforge.net/DTD/sodipodi-0.dtd"
   xmlns:inkscape="http://www.inkscape.org/namespaces/inkscape"
   width="1024"
   height="1024"
   id="svg4515"
   version="1.1"
   inkscape:version="0.48.2 r9819"
   sodipodi:docname="noods.svg">
  <defs
     id="defs4517">
    <pattern
       inkscape:stockid="Wavy"
       id="Wavy"
       height="5.1805778"
       width="30.066020"
       patternUnits="userSpaceOnUse"
       inkscape:collect="always">
      <path
         id="path6449"
         d="M 7.597,0.061 C 5.079,-0.187 2.656,0.302 -0.01,1.788 L -0.01,3.061 C 2.773,1.431 5.173,1.052 7.472,1.280 C 9.770,1.508 11.969,2.361 14.253,3.218 C 18.820,4.931 23.804,6.676 30.066,3.061 L 30.062,1.788 C 23.622,5.497 19.246,3.770 14.691,2.061 C 12.413,1.207 10.115,0.311 7.597,0.061 z "
         style="fill:black;stroke:none;" />
    </pattern>
  </defs>
  <sodipodi:namedview
     id="base"
     pagecolor="#ffffff"
     bordercolor="#666666"
     borderopacity="1.0"
     inkscape:pageopacity="0.0"
     inkscape:pageshadow="2"
     inkscape:zoom="0.41652098"
     inkscape:cx="217.66544"
     inkscape:cy="635.50108"
     inkscape:document-units="px"
     inkscape:current-layer="layer1"
     showgrid="false"
     inkscape:window-width="1440"
     inkscape:window-height="852"
     inkscape:window-x="0"
     inkscape:window-y="0"
     inkscape:window-maximized="1" />
  <metadata
     id="metadata4520">
    <rdf:RDF>
      <cc:Work
         rdf:about="">
        <dc:format>image/svg+xml</dc:format>
        <dc:type
           rdf:resource="http://purl.org/dc/dcmitype/StillImage" />
        <dc:title></dc:title>
      </cc:Work>
    </rdf:RDF>
  </metadata>
  <g
     inkscape:label="package"
     inkscape:groupmode="layer"
     id="layer1"
     transform="translate(0,-28.362183)">
    <rect
       style="fill:#cc8f34;fill-opacity:1;fill-rule:nonzero;stroke:#000000;stroke-width:7.62652588;stroke-linejoin:bevel;stroke-miterlimit:4;stroke-opacity:1;stroke-dasharray:none"
       id="rect5033"
       width="795.38971"
       height="821.086"
       x="38.96954"
       y="228.63133"
       ry="0"
       transform="matrix(0.97461345,-0.22389423,0.11116999,0.99380141,0,0)" />
    <text
       xml:space="preserve"
       style="font-size:206.78005981px;font-style:normal;font-variant:normal;font-weight:500;font-stretch:normal;line-height:125%;letter-spacing:0px;word-spacing:0px;fill:#800000;fill-opacity:1;stroke:#000000;stroke-width:4;stroke-miterlimit:4;stroke-dasharray:none;font-family:Baoli SC;-inkscape-font-specification:Baoli SC Medium"
       x="76.919235"
       y="445.62689"
       id="text5035"
       sodipodi:linespacing="125%"
       transform="matrix(1.1718413,-0.26920263,0.09306785,0.83197774,0,0)"><tspan
         sodipodi:role="line"
         id="tspan5037"
         x="76.919235"
         y="445.62689"
         style="stroke-width:4">Insta</tspan><tspan
         sodipodi:role="line"
         x="76.919235"
         y="704.10199"
         id="tspan5039"
         style="stroke-width:4">Noods</tspan></text>
  </g>
  <g
     inkscape:groupmode="layer"
     id="layer2"
     inkscape:label="bowl top"
     style="display:inline">
    <path
       sodipodi:type="arc"
       style="fill:#ffffff;fill-opacity:1;stroke:#000000;stroke-width:4;stroke-linecap:round;stroke-linejoin:bevel;stroke-miterlimit:4;stroke-opacity:1;stroke-dasharray:none;display:inline"
       id="path5068"
       sodipodi:cx="388.39117"
       sodipodi:cy="765.07257"
       sodipodi:rx="202.71294"
       sodipodi:ry="91.987381"
       d="m 591.10411,765.07257 a 202.71294,91.987381 0 1 1 -405.42587,0 202.71294,91.987381 0 1 1 405.42587,0 z"
       transform="matrix(1.1369418,-0.26118531,0.08061791,0.7206819,-29.546929,166.42247)" />
  </g>
  <g
     inkscape:groupmode="layer"
     id="layer4"
     inkscape:label="noods">
    <path
       transform="matrix(1.0018398,-0.23014884,0.11723171,1.04799,-75.901371,19.196332)"
       d="m 687.8405,695.68518 a 216.07555,63.022038 0 1 1 -432.15109,0 216.07555,63.022038 0 1 1 432.15109,0 z"
       sodipodi:ry="63.022038"
       sodipodi:rx="216.07555"
       sodipodi:cy="695.68518"
       sodipodi:cx="471.76495"
       id="path6538"
       style="fill:#bbc252;fill-opacity:1;fill-rule:nonzero;stroke:#000000;stroke-width:4;stroke-linecap:round;stroke-linejoin:bevel;stroke-miterlimit:4;stroke-opacity:1;stroke-dasharray:none"
       sodipodi:type="arc" />
    <path
       sodipodi:type="arc"
       style="fill:url(#Wavy);fill-opacity:1;fill-rule:nonzero;stroke:#000000;stroke-width:4;stroke-linecap:round;stroke-linejoin:bevel;stroke-miterlimit:4;stroke-opacity:1;stroke-dasharray:none"
       id="path5100"
       sodipodi:cx="471.76495"
       sodipodi:cy="695.68518"
       sodipodi:rx="216.07555"
       sodipodi:ry="63.022038"
       d="m 687.8405,695.68518 a 216.07555,63.022038 0 1 1 -432.15109,0 216.07555,63.022038 0 1 1 432.15109,0 z"
       transform="matrix(1.0018398,-0.23014884,0.11723171,1.04799,-75.901371,19.196332)" />
  </g>
  <g
     inkscape:groupmode="layer"
     id="layer3"
     inkscape:label="bowl bottom"
     style="display:inline">
    <path
       style="fill:#ffffff;fill-opacity:1;stroke:#000000;stroke-width:5.25822115;stroke-linecap:round;stroke-linejoin:bevel;stroke-miterlimit:4;stroke-opacity:1;stroke-dasharray:none;display:inline"
       d="m 249.09934,681.25929 c 27.94666,57.70981 126.47253,83.4265 238.33864,57.72793 111.8622,-25.69768 199.80968,-94.25552 213.7729,-161.58979 -17.56787,35.21893 -108.22509,79.54278 -220.07661,105.238 -111.86424,25.69815 -207.67885,24.21704 -232.03493,-1.37614 z"
       id="path5092"
       inkscape:connector-curvature="0"
       sodipodi:nodetypes="cscsc" />
  </g>
</svg>
