<?xml version="1.0" encoding="utf-8"?>
<!-- Generator: Adobe Illustrator 18.1.1, SVG Export Plug-In . SVG Version: 6.00 Build 0)  -->
<svg version="1.1"
	 id="svg4754" inkscape:export-ydpi="90" inkscape:export-xdpi="90" inkscape:export-filename="/Users/jslone/Documents/bagger/resources/images/backgrounds/gameScreen.png" sodipodi:docname="gameScreen.svg" inkscape:version="0.48.2 r9819" xmlns:inkscape="http://www.inkscape.org/namespaces/inkscape" xmlns:sodipodi="http://sodipodi.sourceforge.net/DTD/sodipodi-0.dtd" xmlns:rdf="http://www.w3.org/1999/02/22-rdf-syntax-ns#" xmlns:svg="http://www.w3.org/2000/svg" xmlns:cc="http://creativecommons.org/ns#" xmlns:dc="http://purl.org/dc/elements/1.1/"
	 xmlns="http://www.w3.org/2000/svg" xmlns:xlink="http://www.w3.org/1999/xlink" x="0px" y="0px" viewBox="718 -628 2048 2048"
	 enable-background="new 718 -628 2048 2048" xml:space="preserve">
<defs>
	
	<inkscape:path-effect  effect="spiro" is_visible="true" id="path-effect5538"></inkscape:path-effect>
	<inkscape:path-effect  effect="spiro" is_visible="true" id="path-effect5534"></inkscape:path-effect>
	<inkscape:path-effect  effect="spiro" is_visible="true" id="path-effect5530"></inkscape:path-effect>
	
		<inkscape:perspective  inkscape:persp3d-origin="-39.942689 : 1033.2923 : 1" inkscape:vp_z="-82.787605 : -486.42301 : 0" inkscape:vp_y="-150.72854 : 563.06205 : 0" inkscape:vp_x="197.47252 : 0 : 0" sodipodi:type="inkscape:persp3d" id="perspective3210">
		</inkscape:perspective>
	
		<inkscape:perspective  inkscape:persp3d-origin="1314.7388 : 715.20096 : 1" inkscape:vp_z="873.84094 : 3632.7797 : 1" inkscape:vp_y="1531.0672 : 1995.8433 : 1" inkscape:vp_x="-3181.621 : 824.26364 : 0" sodipodi:type="inkscape:persp3d" id="perspective3110">
		</inkscape:perspective>
	<inkscape:path-effect  effect="spiro" is_visible="true" id="path-effect4905"></inkscape:path-effect>
	<inkscape:path-effect  effect="spiro" is_visible="true" id="path-effect4901"></inkscape:path-effect>
	<inkscape:path-effect  effect="spiro" is_visible="true" id="path-effect4897"></inkscape:path-effect>
	<inkscape:path-effect  effect="spiro" is_visible="true" id="path-effect4893"></inkscape:path-effect>
	<inkscape:path-effect  effect="spiro" is_visible="true" id="path-effect4889"></inkscape:path-effect>
</defs>
<sodipodi:namedview  inkscape:window-maximized="1" inkscape:window-y="0" inkscape:window-x="0" inkscape:window-height="852" inkscape:window-width="1440" inkscape:pageshadow="2" inkscape:current-layer="layer3" inkscape:document-units="px" inkscape:pageopacity="0.0" inkscape:snap-to-guides="false" inkscape:snap-grids="true" inkscape:cy="826.75234" bordercolor="#666666" id="base" showgrid="false" borderopacity="1.0" pagecolor="#ffffff" inkscape:zoom="0.20990659" inkscape:cx="1143.4975">
	<inkscape:grid  type="xygrid" id="grid3108"></inkscape:grid>
</sodipodi:namedview>
<g id="layer1" transform="translate(0,995.63782)" inkscape:groupmode="layer" sodipodi:insensitive="true" inkscape:label="Layer 1" display="none">
	
		<path id="path4887" inkscape:connector-curvature="0" inkscape:original-d="m 2.9547664e-8,-571.63782 c 0,0 1994.706199970452416,-36.58846 1985.257999970452374,0" inkscape:path-effect="#path-effect4889" display="inline" fill="none" stroke="#000000" stroke-width="0.9817" d="
		M718-1199.6h1985.3"/>
	
		<path id="path4891" inkscape:connector-curvature="0" inkscape:original-d="m 4.4017509,-175.63782 c 0,0 2025.6575491,-36.58846 2016.0627491,0" inkscape:path-effect="#path-effect4893" display="inline" fill="none" stroke="#000000" stroke-width="0.9893" d="
		M722.4-803.6h2016.1"/>
	
		<path id="path4895" inkscape:connector-curvature="0" inkscape:original-d="m 21.054203,216.36218 1950.930197,0" inkscape:path-effect="#path-effect4897" display="inline" fill="none" stroke="#000000" stroke-width="1.1544" d="
		M739.1-411.6H2690"/>
	
		<path id="path4899" inkscape:connector-curvature="0" inkscape:original-d="m 1968,220.36218 65.24,-384" inkscape:path-effect="#path-effect4901" display="inline" fill="none" stroke="#000000" stroke-width="0.4934" d="
		M2686-407.6l65.2-384"/>
	
		<path id="path4903" inkscape:connector-curvature="0" inkscape:original-d="m 2024,-167.63782 -44,-404" inkscape:path-effect="#path-effect4905" display="inline" fill="none" stroke="#000000" d="
		M2742-795.6l-44-404"/>
	<path id="path4909" inkscape:connector-curvature="0" display="inline" fill="none" stroke="#000000" d="M-146-1779.6
		c-6-24.1-19.3-39.6-32-60"/>
	<path id="path4911" inkscape:connector-curvature="0" display="inline" fill="none" stroke="#000000" d="M854-151.6
		C879.1-103,892.7-45,906,8.4"/>
	<path id="path4913" inkscape:connector-curvature="0" display="inline" fill="none" stroke="#000000" d="M762-151.6
		c42.3,0.3,79-31,124-36"/>
	<path id="path4915" inkscape:connector-curvature="0" display="inline" fill="none" stroke="#000000" d="M962-71.6
		c17-0.9,20,28.2,20,72"/>
	<path id="path4917" inkscape:connector-curvature="0" display="inline" fill="none" stroke="#000000" d="M1046-235.6
		c-1.2,80.7,8.8,160.7,16,240"/>
	<path id="path4919" inkscape:connector-curvature="0" display="inline" fill="none" stroke="#000000" d="M1082-7.6
		c28,11.9,42.8,9.8,60-16c80.6-121-134.7,159.8,12,76c29.8-17.1,61.8-28.9,92-44"/>
	<path id="path4921" inkscape:connector-curvature="0" display="inline" fill="none" stroke="#000000" d="M1098-651.6
		c28-22.2-10.1-1.7-24,0c-162.8,20.4,109.3,58.7-40,96"/>
	<path id="path4923" inkscape:connector-curvature="0" display="inline" fill="none" stroke="#000000" d="M1146-615.6
		c20.3,22.1,20.7,41.5,24,68"/>
	<path id="path4925" inkscape:connector-curvature="0" display="inline" fill="none" stroke="#000000" d="M1266-679.6
		c-1.4-94.9,32,214.5,32,180c0-139.2-124.9-28.6-52,20c79.2,52.8,108.3-122.8,100-120c-78.1,26-7.3,106.2,92,40"/>
	<path id="path4927" inkscape:connector-curvature="0" display="inline" fill="none" stroke="#000000" d="M1650-547.6
		c-0.2-8.6-3.8-50.7-24-44c-32.5,10.8-45.3,104.4-8,92c52.2-17.4,63.2-84,4-84"/>
	<path id="path4929" inkscape:connector-curvature="0" display="inline" fill="none" stroke="#000000" d="M1802-619.6
		c-107-116.3-68.9,130.8-56,148"/>
	<path id="path4931" inkscape:connector-curvature="0" display="inline" fill="none" stroke="#000000" d="M1678-519.6
		c21.6-14.3,43.9-17,68-20"/>
	<path id="path4933" inkscape:connector-curvature="0" display="inline" fill="none" stroke="#000000" d="M1902-655.6
		c-16.8-43,114.7-45.8,24,60"/>
	<path id="path4937" inkscape:connector-curvature="0" display="inline" fill="none" stroke="#000000" d="M1934-523.6
		c-67.8,49.5,28.3-9.4-24,8"/>
	<path id="path4939" inkscape:connector-curvature="0" display="inline" fill="none" stroke="#000000" d="M2022-655.6
		c98.1-117.1,20,66.6,20,96"/>
	<path id="path4941" inkscape:connector-curvature="0" display="inline" fill="none" stroke="#000000" d="M2038-455.6
		c25.6-93.4-17,29.8,16-28"/>
	<path id="path4943" inkscape:connector-curvature="0" display="inline" fill="none" stroke="#000000" d="M2158-679.6
		c81.1-145.4,27.8,83.5,40,116"/>
	<path id="path4945" inkscape:connector-curvature="0" display="inline" fill="none" stroke="#000000" d="M2190-463.6
		C2180.6-474.4,2235.4-486.4,2190-463.6z"/>
	<path id="path4947" inkscape:connector-curvature="0" display="inline" fill="none" stroke="#000000" d="M926-991.6
		c-18.6-87.1,27.7,92.4,32,104"/>
	<path id="path4949" inkscape:connector-curvature="0" display="inline" fill="none" stroke="#000000" d="M854-1011.6
		c45.1-24.2,93.5-37.6,144-32"/>
	<path id="path4951" inkscape:connector-curvature="0" display="inline" fill="none" stroke="#000000" d="M1018-883.6
		c-1-11.2,2.2-39.1-20-28c-108.2,54.1,135.9,68.5,16,0"/>
	<path id="path4953" inkscape:connector-curvature="0" display="inline" fill="none" stroke="#000000" d="M1078-879.6
		c8.3,1.6-8.1-36,4-36C1094.1-915.6,1074.8-891.3,1078-879.6c41.8,153.1-5.6-0.6,24-40c42.8-57.1,101.5,30.6,32,48"/>
	<path id="path4955" inkscape:connector-curvature="0" display="inline" fill="none" stroke="#000000" d="M1014-1439.6
		c-25.6-119.4,41,51,20,72c-10.8,10.8-48-172,8-144C1099.6-1482.8,1014-1465.3,1014-1439.6c0,24.1,61.2-13.6,72,8
		c8.9,17.8-38.9,60.4-48,68"/>
	<path id="path4957" inkscape:connector-curvature="0" display="inline" fill="none" stroke="#000000" d="M1182-1459.6
		c39.6-67.8-45.3-39.7-28,64c21.9,131.7,163.1-10.8,40,20"/>
	<path id="path4959" inkscape:connector-curvature="0" display="inline" fill="none" stroke="#000000" d="M1270-1463.6
		c81.3-135.3,35.1,89.2,48,128"/>
	<path id="path4961" inkscape:connector-curvature="0" display="inline" fill="none" stroke="#000000" d="M1346-1227.6
		c18-71.8-47.2,31.7,4-28"/>
</g>
</svg>
